<svg width="337" height="160" viewBox="0 0 337 160" fill="none" xmlns="http://www.w3.org/2000/svg">
<path d="M320.056 111.317L319.5 113.876L322.082 114.313C330.381 115.719 333.552 120.155 333.552 123.082C333.552 124.521 332.858 126.079 331.001 127.395C329.098 128.742 325.951 129.826 321.273 129.942L252.825 131.43C252.823 131.43 252.82 131.43 252.818 131.43C249.92 131.477 247.362 131.914 245.331 132.63C243.431 133.3 241.512 134.386 240.593 136.083C240.078 137.033 239.886 138.181 240.263 139.348C240.617 140.449 241.382 141.272 242.206 141.866C243.805 143.021 246.253 143.776 249.356 144.21C253.715 144.871 256.308 146.219 257.661 147.558C258.935 148.819 259.179 150.107 258.866 151.286C258.172 153.904 254.069 157.498 246.077 157.5C246.075 157.5 246.072 157.5 246.069 157.5L109.868 156.489C109.865 156.489 109.862 156.489 109.859 156.489C104.399 156.407 100.526 155.211 98.071 153.66C95.6175 152.111 94.6941 150.312 94.6146 148.862C94.5366 147.439 95.2363 145.731 97.3484 144.234C99.4833 142.721 102.996 141.509 108.074 141.392L108.085 141.392C111.393 141.301 114.157 140.777 116.291 139.952C118.326 139.165 120.183 137.945 121.035 136.176C121.495 135.224 121.647 134.121 121.323 133.015C121.008 131.942 120.316 131.105 119.52 130.49C117.983 129.303 115.706 128.652 113.02 128.425L113.002 128.424L112.984 128.422L34.7758 122.946C34.7723 122.946 34.7689 122.946 34.7655 122.946C24.5752 122.143 21.0443 117.863 20.7152 115.246C20.5525 113.952 21.0281 112.583 22.4031 111.427C23.8098 110.244 26.2287 109.255 29.8144 109.178C31.5301 109.175 33.1536 108.881 34.5042 108.449C35.7844 108.04 37.0938 107.418 37.9548 106.573C38.331 106.204 39.0882 105.338 39.0444 104.07C38.9909 102.521 37.8561 101.706 37.146 101.387C36.4428 101.07 35.6449 100.96 34.9141 100.926C34.1392 100.889 33.225 100.929 32.172 101.043L32.1675 101.043C19.5256 102.431 6.69068 94.261 3.41432 83.0818C0.15868 71.6198 5.98161 61.1636 15.4228 55.7621C24.8303 50.3798 37.5223 50.2351 47.6246 59.3863L50.8638 62.3205L51.751 58.041C54.6362 44.1229 75.9945 34.7608 91.0005 50.3004L94.7862 54.2207L95.2882 48.794C96.5884 34.7395 106.247 26.2542 117.429 24.0969C128.665 21.929 141.3 26.1875 148.388 37.7511L150.717 41.5501L152.746 37.5829C154.229 34.6826 156.62 32.339 159.923 31.147C163.234 29.9524 167.714 29.825 173.51 31.8394L175.831 32.6461L176.677 30.3395C178.306 25.9041 182.548 17.7023 190.509 11.3586C198.378 5.08822 210.021 0.510169 226.828 3.37167C237.076 5.20609 245.131 12.1649 249.952 21.301C254.784 30.4569 256.243 41.586 253.456 51.372L252.354 55.2427L256.312 54.5156C266.512 52.6421 274.627 60.9399 272.446 70.0837L271.746 73.0193L274.761 73.1608C283.961 73.5926 289.795 81.3631 287.361 89.3645L286.329 92.7592L289.873 92.5892C296.593 92.2668 303.86 92.4583 310.071 95.2028C313.169 96.573 316.064 99.0648 317.979 102.051C319.895 105.036 320.711 108.31 320.056 111.317Z" stroke="white" stroke-width="5"/>
</svg>
