<svg width="80" height="72" viewBox="0 0 80 72" fill="none" xmlns="http://www.w3.org/2000/svg">
<path d="M64.5329 12.5079C63.9826 12.5079 63.4632 12.7764 63.1462 13.2298C62.9702 13.4807 59.3606 18.6617 55.8303 24.8907C49.7205 13.125 41.9336 1.89107 41.3961 1.12479C40.7622 0.218005 39.2568 0.218005 38.6229 1.12479C38.0859 1.89072 30.299 13.1238 24.1887 24.8907C20.6584 18.6665 17.0489 13.481 16.8728 13.2298C16.5559 12.7764 16.0408 12.5079 15.4862 12.5079C14.9359 12.5079 14.4165 12.7764 14.0995 13.2298C13.5229 14.0529 0 33.5362 0 42.4272C0 51.8076 6.94621 59.4454 15.4811 59.4454C17.013 59.4454 18.5052 59.1989 19.9314 58.7235C23.9327 66.3828 31.4244 71.5553 40 71.5553C48.5749 71.5553 56.0671 66.3831 60.0686 58.7235C61.4992 59.1989 62.987 59.4454 64.5189 59.4454C73.0541 59.4454 80 51.8126 80 42.4272C80 33.5399 66.4774 14.0569 65.9005 13.2298C65.6011 12.7764 65.0817 12.5079 64.5315 12.5079H64.5329ZM15.4876 56.0596C8.81435 56.0596 3.38718 49.9409 3.38718 42.422C3.38718 36.616 11.1521 23.7271 15.4876 17.2036C17.1075 19.6466 19.8763 23.978 22.359 28.5468C19.2116 35.088 16.8699 41.48 16.8699 46.0134C16.8699 49.3984 17.4773 52.6338 18.569 55.5919C17.5697 55.8956 16.5441 56.0596 15.4876 56.0596ZM40.0108 68.169C29.1117 68.169 20.2464 58.234 20.2464 46.019C20.2464 41.8593 22.575 35.7319 25.6827 29.4021C25.7444 29.3008 25.7972 29.1952 25.8368 29.0851C30.6305 19.4009 37.1845 9.31624 40.0107 5.09494C42.8367 9.31196 49.3867 19.3928 54.1756 29.0671C54.2152 29.1859 54.2725 29.296 54.3429 29.406C57.4506 35.7316 59.7792 41.8592 59.7792 46.0185C59.7748 58.2339 50.9099 68.169 40.0108 68.169ZM64.534 56.0596C63.4776 56.0596 62.4519 55.8967 61.4614 55.5974C62.5531 52.6349 63.1606 49.4039 63.1606 46.0189C63.1606 41.485 60.8144 35.0934 57.6714 28.5522C60.1497 23.983 62.9229 19.6473 64.5428 17.209C68.8698 23.7326 76.6342 36.6218 76.6342 42.4275C76.6342 49.9459 71.2069 56.0596 64.534 56.0596ZM54.5241 42.6384C54.5241 45.2223 53.5029 47.6345 51.6453 49.4305C51.3196 49.7474 50.8926 49.9059 50.47 49.9059C50.0298 49.9059 49.5896 49.7342 49.2551 49.3908C48.608 48.7218 48.6212 47.6477 49.2903 47.0006C50.4832 45.8474 51.139 44.2935 51.139 42.6339C51.139 40.9744 50.4832 39.4205 49.2903 38.2673C48.6212 37.6202 48.6036 36.5462 49.2551 35.8771C49.9021 35.208 50.9762 35.1904 51.6453 35.8418C53.5028 37.6423 54.5241 40.0546 54.5241 42.6384Z" fill="white"/>
</svg>
