<svg width="41" height="55" viewBox="0 0 41 55" fill="none" xmlns="http://www.w3.org/2000/svg">
<mask id="path-1-inside-1_5_26" fill="white">
<path d="M31.0022 20.3546C31.0022 14.5637 26.2909 9.85254 20.5001 9.85254C14.7092 9.85254 9.99799 14.5638 9.99799 20.3546C9.99799 26.1455 14.7092 30.8567 20.5001 30.8567C26.2909 30.8567 31.0022 26.1455 31.0022 20.3546ZM11.7733 20.3546C11.7733 15.5435 15.6871 11.6295 20.4984 11.6295C25.3095 11.6295 29.2235 15.5433 29.2235 20.3546C29.2235 25.1658 25.3097 29.0798 20.4984 29.0798C15.6872 29.0798 11.7733 25.166 11.7733 20.3546Z"/>
</mask>
<path d="M31.0022 20.3546C31.0022 14.5637 26.2909 9.85254 20.5001 9.85254C14.7092 9.85254 9.99799 14.5638 9.99799 20.3546C9.99799 26.1455 14.7092 30.8567 20.5001 30.8567C26.2909 30.8567 31.0022 26.1455 31.0022 20.3546ZM11.7733 20.3546C11.7733 15.5435 15.6871 11.6295 20.4984 11.6295C25.3095 11.6295 29.2235 15.5433 29.2235 20.3546C29.2235 25.1658 25.3097 29.0798 20.4984 29.0798C15.6872 29.0798 11.7733 25.166 11.7733 20.3546Z" fill="white"/>
<path d="M51.0022 20.3546C51.0022 3.51783 37.3365 -10.1475 20.5001 -10.1475V29.8525C15.2454 29.8525 11.0022 25.6095 11.0022 20.3546H51.0022ZM20.5001 -10.1475C3.66354 -10.1475 -10.002 3.51809 -10.002 20.3546H29.998C29.998 25.6095 25.7549 29.8525 20.5001 29.8525V-10.1475ZM-10.002 20.3546C-10.002 37.1912 3.66354 50.8567 20.5001 50.8567V10.8567C25.7549 10.8567 29.998 15.0998 29.998 20.3546H-10.002ZM20.5001 50.8567C37.3366 50.8567 51.0022 37.1912 51.0022 20.3546H11.0022C11.0022 15.0998 15.2453 10.8567 20.5001 10.8567V50.8567ZM31.7733 20.3546C31.7733 26.5889 26.733 31.6295 20.4984 31.6295V-8.37048C4.64112 -8.37048 -8.22674 4.49804 -8.22674 20.3546H31.7733ZM20.4984 31.6295C14.2641 31.6295 9.22351 26.5893 9.22351 20.3546H49.2235C49.2235 4.49736 36.355 -8.37048 20.4984 -8.37048V31.6295ZM9.22351 20.3546C9.22351 14.1204 14.2638 9.07977 20.4984 9.07977V49.0798C36.3557 49.0798 49.2235 36.2112 49.2235 20.3546H9.22351ZM20.4984 9.07977C26.7327 9.07977 31.7733 14.12 31.7733 20.3546H-8.22674C-8.22674 36.2119 4.64179 49.0798 20.4984 49.0798V9.07977Z" fill="white" mask="url(#path-1-inside-1_5_26)"/>
<mask id="path-3-inside-2_5_26" fill="white">
<path d="M20.5001 54.1548C20.7578 54.1548 20.9999 54.0437 21.1687 53.8504C21.9572 52.9464 40.5 31.6117 40.5 20.8452C40.5 9.81656 31.5287 0.845215 20.5 0.845215C9.47134 0.845215 0.5 9.81656 0.5 20.8452C0.5 31.6095 19.0426 52.9463 19.8313 53.8504C20.0001 54.0437 20.2447 54.1548 20.5001 54.1548ZM20.5001 2.62229C30.549 2.62229 38.7231 10.7964 38.7231 20.8453C38.7231 29.8502 23.8607 47.9265 20.5001 51.8978C17.1394 47.9263 2.2771 29.8502 2.2771 20.8453C2.2771 10.7964 10.4512 2.62229 20.5001 2.62229Z"/>
</mask>
<path d="M20.5001 54.1548C20.7578 54.1548 20.9999 54.0437 21.1687 53.8504C21.9572 52.9464 40.5 31.6117 40.5 20.8452C40.5 9.81656 31.5287 0.845215 20.5 0.845215C9.47134 0.845215 0.5 9.81656 0.5 20.8452C0.5 31.6095 19.0426 52.9463 19.8313 53.8504C20.0001 54.0437 20.2447 54.1548 20.5001 54.1548ZM20.5001 2.62229C30.549 2.62229 38.7231 10.7964 38.7231 20.8453C38.7231 29.8502 23.8607 47.9265 20.5001 51.8978C17.1394 47.9263 2.2771 29.8502 2.2771 20.8453C2.2771 10.7964 10.4512 2.62229 20.5001 2.62229Z" fill="white"/>
<path d="M21.1687 53.8504L36.2308 67.0085L36.2358 67.0028L36.2408 66.997L21.1687 53.8504ZM19.8313 53.8504L4.75981 66.9977L4.76451 67.0031L4.76921 67.0085L19.8313 53.8504ZM20.5001 51.8978L5.23274 64.8171L20.4999 82.8592L35.7673 64.8173L20.5001 51.8978ZM20.5001 74.1548C26.5751 74.1548 32.2933 71.5157 36.2308 67.0085L6.10667 40.6924C9.70646 36.5717 14.9405 34.1548 20.5001 34.1548V74.1548ZM36.2408 66.997C36.8075 66.3473 42.1904 60.1547 47.5379 52.4823C50.1968 48.6674 53.1457 44.064 55.5061 39.3069C57.5747 35.1381 60.5 28.3391 60.5 20.8452H20.5C20.5 18.7346 21.1075 18.6399 19.6746 21.5277C18.5336 23.8271 16.7975 26.6327 14.7222 29.6103C10.6012 35.5228 6.31848 40.4495 6.09664 40.7039L36.2408 66.997ZM60.5 20.8452C60.5 -1.22914 42.5744 -19.1548 20.5 -19.1548V20.8452C20.5056 20.8452 20.5096 20.8454 20.512 20.8455C20.5132 20.8455 20.514 20.8456 20.5146 20.8456C20.5151 20.8457 20.5154 20.8457 20.5154 20.8457C20.5154 20.8457 20.5152 20.8457 20.5147 20.8456C20.5143 20.8456 20.5137 20.8455 20.5129 20.8454C20.5113 20.8451 20.5091 20.8448 20.5066 20.8442C20.5014 20.8432 20.4956 20.8417 20.4898 20.8399C20.4841 20.8381 20.4794 20.8363 20.4758 20.8348C20.4686 20.8317 20.4678 20.8306 20.4723 20.8336C20.4772 20.8369 20.485 20.8429 20.4936 20.8516C20.5023 20.8603 20.5083 20.868 20.5116 20.8729C20.5146 20.8774 20.5135 20.8766 20.5104 20.8694C20.5089 20.8658 20.5071 20.8611 20.5053 20.8554C20.5035 20.8496 20.5021 20.8439 20.501 20.8386C20.5005 20.8361 20.5001 20.8339 20.4998 20.8323C20.4997 20.8315 20.4996 20.8309 20.4996 20.8305C20.4995 20.83 20.4995 20.8298 20.4995 20.8298C20.4995 20.8298 20.4995 20.8301 20.4996 20.8306C20.4996 20.8312 20.4997 20.8321 20.4997 20.8333C20.4999 20.8356 20.5 20.8396 20.5 20.8452H60.5ZM20.5 -19.1548C-1.57435 -19.1548 -19.5 -1.22914 -19.5 20.8452H20.5C20.5 20.8396 20.5001 20.8356 20.5003 20.8333C20.5003 20.8321 20.5004 20.8312 20.5004 20.8306C20.5005 20.8301 20.5005 20.8298 20.5005 20.8298C20.5005 20.8298 20.5005 20.83 20.5004 20.8305C20.5004 20.8309 20.5003 20.8315 20.5002 20.8323C20.4999 20.8339 20.4995 20.8361 20.499 20.8386C20.4979 20.8439 20.4965 20.8496 20.4947 20.8554C20.4929 20.8611 20.4911 20.8658 20.4896 20.8694C20.4865 20.8766 20.4854 20.8774 20.4884 20.8729C20.4917 20.868 20.4977 20.8603 20.5064 20.8516C20.5151 20.8429 20.5228 20.8369 20.5277 20.8336C20.5322 20.8306 20.5314 20.8317 20.5242 20.8348C20.5206 20.8363 20.5159 20.8381 20.5102 20.8399C20.5044 20.8417 20.4986 20.8432 20.4934 20.8442C20.4909 20.8448 20.4887 20.8451 20.4871 20.8454C20.4863 20.8455 20.4857 20.8456 20.4853 20.8456C20.4848 20.8457 20.4846 20.8457 20.4846 20.8457C20.4846 20.8457 20.4849 20.8457 20.4854 20.8456C20.486 20.8456 20.4868 20.8455 20.488 20.8455C20.4904 20.8454 20.4944 20.8452 20.5 20.8452V-19.1548ZM-19.5 20.8452C-19.5 28.339 -16.5743 35.138 -14.5061 39.3061C-12.1458 44.0629 -9.19704 48.6661 -6.53821 52.481C-1.19098 60.1533 4.19162 66.3464 4.75981 66.9977L34.9028 40.7032C34.6823 40.4504 30.3992 35.5229 26.278 29.6097C24.2026 26.6319 22.4663 23.8261 21.3253 21.5265C19.8921 18.6382 20.5 18.7335 20.5 20.8452H-19.5ZM4.76921 67.0085C8.72786 71.54 14.4595 74.1548 20.5001 74.1548V34.1548C26.0298 34.1548 31.2723 36.5474 34.8934 40.6924L4.76921 67.0085ZM20.5001 22.6223C19.5033 22.6223 18.7231 21.8421 18.7231 20.8453H58.7231C58.7231 -0.249294 41.5947 -17.3777 20.5001 -17.3777V22.6223ZM18.7231 20.8453C18.7231 18.4747 19.4304 17.957 18.3058 20.3083C17.4436 22.111 16.0646 24.4419 14.2829 27.0875C10.7445 32.3416 6.72674 37.2131 5.23289 38.9784L35.7673 64.8173C37.6341 62.6113 42.7278 56.4589 47.4608 49.4308C49.8148 45.9354 52.3614 41.8105 54.3909 37.5672C56.1581 33.8724 58.7231 27.7183 58.7231 20.8453H18.7231ZM35.7675 38.9786C34.2734 37.213 30.2556 32.3415 26.7173 27.0874C24.9356 24.4418 23.5566 22.111 22.6944 20.3083C21.5698 17.957 22.2771 18.4747 22.2771 20.8453H-17.7229C-17.7229 27.7183 -15.1578 33.8724 -13.3907 37.5671C-11.3612 41.8104 -8.81462 45.9353 -6.46062 49.4308C-1.72766 56.4588 3.36607 62.6112 5.23274 64.8171L35.7675 38.9786ZM22.2771 20.8453C22.2771 21.8421 21.4969 22.6223 20.5001 22.6223V-17.3777C-0.594483 -17.3777 -17.7229 -0.249293 -17.7229 20.8453H22.2771Z" fill="white" mask="url(#path-3-inside-2_5_26)"/>
</svg>
