<svg width="1248" height="410" viewBox="0 0 1248 410" fill="none" xmlns="http://www.w3.org/2000/svg">
<path d="M830.828 134.366L866.721 168.056L828.956 158.003L826.615 162.254L968.649 293.668L867.272 246.071L864.284 244.668L863.744 247.924L858.245 281.046L828.387 281.895L850.113 273.068L852.931 271.922L851.262 269.379L818.664 219.736L818.441 219.397L818.123 219.146L694.591 121.583L648.117 55.1529L645.927 52.0226L643.935 55.2825L627.3 82.5077L626.503 83.8115L627.3 85.1151L665.242 147.179L617.254 128.654L614.553 132.719L747.189 270.518L634.399 232.064L632.357 236.604L705.332 278.078L728.207 313.942L728.632 314.608L729.362 314.909L835.482 358.676L724.85 342.095L724.452 342.035L724.056 342.104L645.475 355.634L624.584 286.535L624.207 285.29L622.972 284.883L578.149 270.135L565.401 232.078L565.052 231.037L564.051 230.589L467.73 187.51L464.849 191.463L547.879 283.937L419.068 197.851L415.598 201.315L453.073 257.564L388.569 206.866L384.424 203.609L384.525 208.879L385.799 275.935L385.814 276.736L386.292 277.379L425.049 329.526L362.359 277.773L358.197 206.411L357.762 198.962L353.621 205.169L311.971 267.6L263.241 316.255L271.9 269.651L272.826 264.665L268.307 266.966L134.089 335.323L133.273 335.739L132.918 336.584L108.928 393.795L8.96219 406.354L216.728 249.165L230.999 273.388L232.628 276.154L234.911 273.897L375.84 134.552L411.645 171.963L413.174 173.561L414.947 172.238L641.031 3.47266L734.573 124.273L734.977 124.795L735.587 125.049L785.559 145.907L786.873 146.455L788.015 145.605L853.934 96.5238L1059.88 278.093L1060.19 278.369L1060.58 278.529L1176.64 326.4L1230.75 385.406L1169.41 342.517L1169.1 342.3L1168.74 342.185L1045.49 302.794L944.599 204.094L926.123 172.352L925.719 171.658L924.986 171.329L833.563 130.263L830.828 134.366Z" stroke="white" stroke-width="5"/>
</svg>
