<svg width="80" height="72" viewBox="0 0 80 72" fill="none" xmlns="http://www.w3.org/2000/svg">
<path d="M66.1387 20.0627C65.0507 20.0627 63.9706 20.1909 62.9138 20.4512C62.4048 13.4381 58.5233 7.10897 52.5088 3.47253C46.4904 -0.164104 39.085 -0.661428 32.6387 2.14378C26.1929 4.94899 21.5036 10.7032 20.0653 17.5877C15.8536 16.1151 11.2068 16.5814 7.37163 18.862C3.54064 21.1428 0.910288 25.0048 0.195434 29.4073C-0.519421 33.8098 0.747155 38.3047 3.66119 41.6813C6.57133 45.0615 10.8296 46.977 15.2896 46.9187H59.462V47.078V50.6991C59.462 52.0706 60.5732 53.1857 61.9486 53.1857C63.3201 53.1857 64.4352 52.0706 64.4352 50.6991V47.1168V46.9575H66.1642C69.8009 47.0585 73.321 45.6832 75.9242 43.146C78.5313 40.6127 80 37.1315 80 33.4948C80 29.8621 78.5313 26.3808 75.9242 23.8436C73.321 21.3104 69.801 19.935 66.1642 20.0321L66.1387 20.0627ZM66.1387 42.0146H15.2912C12.1053 42.0107 9.1057 40.5032 7.19806 37.9505C5.29042 35.3979 4.6998 32.0953 5.60115 29.0376C6.50255 25.9798 8.79099 23.5281 11.7788 22.417C14.7666 21.3058 18.1042 21.6671 20.7812 23.3961C21.5311 23.8779 22.4791 23.9245 23.2717 23.5127C24.0604 23.1008 24.5694 22.2965 24.6004 21.4068C24.8025 15.5049 28.105 10.1513 33.2881 7.32256C38.4672 4.49398 44.7574 4.61055 49.8321 7.6295C54.9025 10.6485 58.0069 16.119 57.9913 22.0211C57.9952 22.6505 57.9602 23.2799 57.8825 23.9016C57.7737 24.8535 58.2128 25.782 59.017 26.2989C59.8252 26.8117 60.8548 26.8117 61.663 26.2989C63.9242 24.8497 66.7334 24.5582 69.2472 25.5062C71.7571 26.4543 73.6726 28.533 74.4108 31.1167C75.149 33.6966 74.6245 36.4745 72.9926 38.6076C71.3647 40.7406 68.8236 41.98 66.1389 41.9451L66.1387 42.0146Z" fill="white"/>
<path d="M21.8649 61.64C22.5254 61.64 23.1587 61.3758 23.6249 60.9095C24.0911 60.4433 24.3515 59.8138 24.3515 59.1534V55.5323C24.3515 54.1569 23.2403 53.0457 21.8649 53.0457C20.4934 53.0457 19.3783 54.1569 19.3783 55.5323V59.1534C19.3783 59.8139 19.6424 60.4434 20.1087 60.9095C20.575 61.3757 21.2045 61.64 21.8649 61.64Z" fill="white"/>
<path d="M36.0704 65.5479V61.9268C36.0704 60.5553 34.9553 59.4402 33.5838 59.4402C32.2084 59.4402 31.0972 60.5553 31.0972 61.9268V65.5479C31.0972 66.9195 32.2084 68.0346 33.5838 68.0346C34.9553 68.0346 36.0704 66.9195 36.0704 65.5479Z" fill="white"/>
<path d="M48.3245 58.4073V54.7862C48.3245 53.4108 47.2094 52.2996 45.8379 52.2996C44.4625 52.2996 43.3512 53.4108 43.3512 54.7862V58.4073C43.3512 59.7788 44.4625 60.8939 45.8379 60.8939C47.2094 60.8939 48.3245 59.7788 48.3245 58.4073Z" fill="white"/>
<path d="M57.6026 69.1695V65.5484C57.6026 64.173 56.4914 63.0618 55.116 63.0618C53.7444 63.0618 52.6293 64.173 52.6293 65.5484V69.1695C52.6293 70.541 53.7444 71.6561 55.116 71.6561C56.4914 71.6561 57.6026 70.541 57.6026 69.1695Z" fill="white"/>
</svg>
