<svg width="80" height="68" viewBox="0 0 80 68" fill="none" xmlns="http://www.w3.org/2000/svg">
<path d="M78.7097 34H63.1613C62.7248 28.1559 60.0951 22.6928 55.7997 18.7062C51.5042 14.7196 45.8604 12.5042 40 12.5042C34.1396 12.5042 28.4958 14.7196 24.2003 18.7062C19.9049 22.6928 17.2752 28.1559 16.8387 34H1.29032C0.948108 34 0.619909 34.136 0.377927 34.3779C0.135944 34.6199 0 34.9481 0 35.2903C0 35.6325 0.135944 35.9607 0.377927 36.2027C0.619909 36.4447 0.948108 36.5807 1.29032 36.5807H78.7097C79.0519 36.5807 79.3801 36.4447 79.6221 36.2027C79.8641 35.9607 80 35.6325 80 35.2903C80 34.9481 79.8641 34.6199 79.6221 34.3779C79.3801 34.136 79.0519 34 78.7097 34ZM40 14.6452C45.2479 14.6513 50.2965 16.6557 54.1194 20.251C57.9424 23.8462 60.2527 28.7624 60.5806 34H19.4194C19.7473 28.7624 22.0576 23.8462 25.8806 20.251C29.7035 16.6557 34.7521 14.6513 40 14.6452Z" fill="white"/>
<path d="M65.4194 13.3549L61.3936 16.5807C61.2554 16.6845 61.1395 16.815 61.0527 16.9645C60.9659 17.114 60.9101 17.2794 60.8884 17.4509C60.8668 17.6223 60.8798 17.7964 60.9268 17.9628C60.9737 18.1291 61.0536 18.2843 61.1617 18.4192C61.2698 18.5541 61.4038 18.6659 61.5559 18.7479C61.7081 18.83 61.8751 18.8807 62.0472 18.8969C62.2192 18.9132 62.3928 18.8947 62.5576 18.8426C62.7224 18.7905 62.8751 18.7058 63.0065 18.5936L67.0968 15.3807C67.2299 15.2706 67.3399 15.1353 67.4206 14.9826C67.5014 14.83 67.5512 14.6629 67.5674 14.491C67.5836 14.319 67.5657 14.1456 67.5149 13.9806C67.464 13.8155 67.3812 13.6621 67.271 13.5291C67.1609 13.3961 67.0256 13.2861 66.873 13.2053C66.7203 13.1246 66.5532 13.0747 66.3813 13.0585C66.2094 13.0423 66.0359 13.0602 65.8709 13.111C65.7058 13.1619 65.5524 13.2448 65.4194 13.3549Z" fill="white"/>
<path d="M6.03878 27.5485C6.00054 27.7137 5.99525 27.8848 6.0232 28.0521C6.05116 28.2194 6.11181 28.3795 6.20169 28.5233C6.29156 28.6671 6.40891 28.7918 6.54701 28.8902C6.68511 28.9886 6.84126 29.0588 7.00652 29.0969L12.0388 30.2453H12.3227C12.6649 30.2829 13.008 30.1831 13.2766 29.9677C13.5452 29.7523 13.7173 29.4391 13.7549 29.0969C13.7926 28.7546 13.6927 28.4115 13.4773 28.1429C13.262 27.8743 12.9487 27.7022 12.6065 27.6646L7.57426 26.5162C7.40547 26.4807 7.23127 26.4793 7.06195 26.5123C6.89263 26.5452 6.73163 26.6118 6.58848 26.708C6.44533 26.8042 6.32292 26.9282 6.22851 27.0726C6.13409 27.2169 6.06958 27.3788 6.03878 27.5485Z" fill="white"/>
<path d="M27.6903 11.0065C27.9079 11.0058 28.1217 10.9502 28.312 10.8448C28.5023 10.7394 28.6629 10.5876 28.7787 10.4034C28.8946 10.2193 28.962 10.0089 28.9748 9.79174C28.9875 9.57457 28.9452 9.3577 28.8516 9.1613L26.6065 4.51613C26.5358 4.35882 26.4342 4.21728 26.3079 4.09987C26.1816 3.98247 26.033 3.89158 25.8709 3.83259C25.7088 3.7736 25.5366 3.74769 25.3643 3.75641C25.1921 3.76513 25.0233 3.80829 24.868 3.88334C24.7128 3.9584 24.5741 4.06382 24.4602 4.19338C24.3464 4.32294 24.2597 4.47401 24.2052 4.63766C24.1508 4.80131 24.1297 4.97421 24.1432 5.14615C24.1567 5.31809 24.2045 5.48558 24.2839 5.63872L26.529 10.2839C26.6355 10.501 26.8007 10.6839 27.0061 10.8117C27.2114 10.9395 27.4485 11.0069 27.6903 11.0065Z" fill="white"/>
<path d="M52.3097 11.0065C52.5529 11.0058 52.791 10.9364 52.9964 10.8063C53.2019 10.6762 53.3664 10.4906 53.471 10.271L55.7161 5.61297C55.8539 5.30651 55.8666 4.9584 55.7517 4.64267C55.6368 4.32695 55.4032 4.0685 55.1007 3.92228C54.7982 3.77607 54.4506 3.75362 54.1318 3.85971C53.813 3.96581 53.5481 4.19207 53.3936 4.49039L51.1484 9.13555C51.0549 9.33196 51.0125 9.54882 51.0252 9.76599C51.038 9.98316 51.1054 10.1936 51.2213 10.3777C51.3372 10.5618 51.4977 10.7136 51.688 10.8191C51.8783 10.9245 52.0921 10.9801 52.3097 10.9807V11.0065Z" fill="white"/>
<path d="M66.4129 29.2645C66.4784 29.5556 66.6428 29.8149 66.8781 29.9984C67.1133 30.1819 67.4049 30.2782 67.7032 30.2709H67.9871L73.0193 29.1226C73.3615 29.0456 73.6592 28.8358 73.8467 28.5393C74.0342 28.2429 74.0963 27.8841 74.0193 27.5419C73.9423 27.1997 73.7325 26.9021 73.4361 26.7145C73.1397 26.527 72.7809 26.4649 72.4387 26.5419L67.4064 27.6903C67.2361 27.7252 67.0746 27.7941 66.9316 27.893C66.7886 27.9919 66.667 28.1187 66.5742 28.2657C66.4814 28.4127 66.4193 28.577 66.3916 28.7486C66.3638 28.9202 66.3711 29.0957 66.4129 29.2645Z" fill="white"/>
<path d="M17.0065 18.5936C17.138 18.7058 17.2906 18.7905 17.4554 18.8426C17.6202 18.8947 17.7938 18.9132 17.9659 18.8969C18.1379 18.8807 18.305 18.83 18.4571 18.7479C18.6092 18.6659 18.7433 18.5541 18.8514 18.4192C18.9594 18.2843 19.0393 18.1291 19.0863 17.9628C19.1332 17.7964 19.1462 17.6223 19.1246 17.4509C19.103 17.2794 19.0471 17.114 18.9603 16.9645C18.8735 16.815 18.7576 16.6845 18.6194 16.5807L14.5807 13.3549C14.4477 13.2448 14.2943 13.1619 14.1293 13.111C13.9642 13.0602 13.7908 13.0423 13.6188 13.0585C13.4469 13.0747 13.2798 13.1246 13.1272 13.2053C12.9745 13.2861 12.8392 13.3961 12.7291 13.5291C12.619 13.6621 12.5361 13.8155 12.4852 13.9806C12.4344 14.1456 12.4165 14.319 12.4327 14.491C12.4489 14.6629 12.4988 14.83 12.5795 14.9826C12.6603 15.1353 12.7703 15.2706 12.9033 15.3807L17.0065 18.5936Z" fill="white"/>
<path d="M41.2903 6.90327V1.74198C41.2903 1.39977 41.1544 1.07157 40.9124 0.829587C40.6704 0.587605 40.3422 0.45166 40 0.45166C39.6578 0.45166 39.3296 0.587605 39.0876 0.829587C38.8456 1.07157 38.7097 1.39977 38.7097 1.74198V6.90327C38.7097 7.24549 38.8456 7.57369 39.0876 7.81567C39.3296 8.05765 39.6578 8.1936 40 8.1936C40.3422 8.1936 40.6704 8.05765 40.9124 7.81567C41.1544 7.57369 41.2903 7.24549 41.2903 6.90327Z" fill="white"/>
<path d="M34.8387 66.2581C34.8387 66.6003 34.9746 66.9285 35.2166 67.1705C35.4586 67.4125 35.7868 67.5484 36.129 67.5484H43.8709C44.2132 67.5484 44.5414 67.4125 44.7833 67.1705C45.0253 66.9285 45.1613 66.6003 45.1613 66.2581C45.1613 65.9159 45.0253 65.5877 44.7833 65.3457C44.5414 65.1037 44.2132 64.9678 43.8709 64.9678H36.129C35.7868 64.9678 35.4586 65.1037 35.2166 65.3457C34.9746 65.5877 34.8387 65.9159 34.8387 66.2581Z" fill="white"/>
<path d="M25.8065 59.8064C25.8065 60.1487 25.9424 60.4769 26.1844 60.7188C26.4264 60.9608 26.7546 61.0968 27.0968 61.0968H33.5484C33.8906 61.0968 34.2188 60.9608 34.4608 60.7188C34.7028 60.4769 34.8387 60.1487 34.8387 59.8064C34.8387 59.4642 34.7028 59.136 34.4608 58.894C34.2188 58.6521 33.8906 58.5161 33.5484 58.5161H27.0968C26.7546 58.5161 26.4264 58.6521 26.1844 58.894C25.9424 59.136 25.8065 59.4642 25.8065 59.8064Z" fill="white"/>
<path d="M46.4516 61.0968H52.9033C53.2455 61.0968 53.5737 60.9608 53.8156 60.7188C54.0576 60.4769 54.1936 60.1487 54.1936 59.8064C54.1936 59.4642 54.0576 59.136 53.8156 58.894C53.5737 58.6521 53.2455 58.5161 52.9033 58.5161H46.4516C46.1094 58.5161 45.7812 58.6521 45.5392 58.894C45.2973 59.136 45.1613 59.4642 45.1613 59.8064C45.1613 60.1487 45.2973 60.4769 45.5392 60.7188C45.7812 60.9608 46.1094 61.0968 46.4516 61.0968Z" fill="white"/>
<path d="M27.0968 53.3549C27.0968 53.0127 26.9608 52.6845 26.7188 52.4425C26.4768 52.2005 26.1486 52.0646 25.8064 52.0646H18.0645C17.7223 52.0646 17.3941 52.2005 17.1521 52.4425C16.9101 52.6845 16.7742 53.0127 16.7742 53.3549C16.7742 53.6971 16.9101 54.0253 17.1521 54.2673C17.3941 54.5093 17.7223 54.6452 18.0645 54.6452H25.8064C26.1486 54.6452 26.4768 54.5093 26.7188 54.2673C26.9608 54.0253 27.0968 53.6971 27.0968 53.3549Z" fill="white"/>
<path d="M27.0968 45.6129H19.3548C19.0126 45.6129 18.6844 45.7489 18.4424 45.9908C18.2005 46.2328 18.0645 46.561 18.0645 46.9032C18.0645 47.2455 18.2005 47.5737 18.4424 47.8156C18.6844 48.0576 19.0126 48.1936 19.3548 48.1936H27.0968C27.439 48.1936 27.7672 48.0576 28.0092 47.8156C28.2512 47.5737 28.3871 47.2455 28.3871 46.9032C28.3871 46.561 28.2512 46.2328 28.0092 45.9908C27.7672 45.7489 27.439 45.6129 27.0968 45.6129Z" fill="white"/>
<path d="M49.0322 46.9032C49.0322 46.561 48.8963 46.2328 48.6543 45.9908C48.4123 45.7489 48.0841 45.6129 47.7419 45.6129H33.5484C33.2062 45.6129 32.878 45.7489 32.636 45.9908C32.394 46.2328 32.2581 46.561 32.2581 46.9032C32.2581 47.2455 32.394 47.5737 32.636 47.8156C32.878 48.0576 33.2062 48.1936 33.5484 48.1936H47.7419C48.0841 48.1936 48.4123 48.0576 48.6543 47.8156C48.8963 47.5737 49.0322 47.2455 49.0322 46.9032Z" fill="white"/>
<path d="M73.5484 40.4517C73.5484 40.1095 73.4125 39.7813 73.1705 39.5393C72.9285 39.2973 72.6003 39.1614 72.2581 39.1614H56.7742C56.432 39.1614 56.1038 39.2973 55.8618 39.5393C55.6198 39.7813 55.4839 40.1095 55.4839 40.4517C55.4839 40.7939 55.6198 41.1221 55.8618 41.3641C56.1038 41.6061 56.432 41.742 56.7742 41.742H72.2581C72.6003 41.742 72.9285 41.6061 73.1705 41.3641C73.4125 41.1221 73.5484 40.7939 73.5484 40.4517Z" fill="white"/>
<path d="M23.2258 39.1614H7.74192C7.39971 39.1614 7.07151 39.2973 6.82953 39.5393C6.58754 39.7813 6.4516 40.1095 6.4516 40.4517C6.4516 40.7939 6.58754 41.1221 6.82953 41.3641C7.07151 41.6061 7.39971 41.742 7.74192 41.742H23.2258C23.568 41.742 23.8962 41.6061 24.1382 41.3641C24.3802 41.1221 24.5161 40.7939 24.5161 40.4517C24.5161 40.1095 24.3802 39.7813 24.1382 39.5393C23.8962 39.2973 23.568 39.1614 23.2258 39.1614Z" fill="white"/>
<path d="M51.6129 39.1614H29.6774C29.3352 39.1614 29.007 39.2973 28.765 39.5393C28.523 39.7813 28.3871 40.1095 28.3871 40.4517C28.3871 40.7939 28.523 41.1221 28.765 41.3641C29.007 41.6061 29.3352 41.742 29.6774 41.742H51.6129C51.9551 41.742 52.2833 41.6061 52.5253 41.3641C52.7673 41.1221 52.9032 40.7939 52.9032 40.4517C52.9032 40.1095 52.7673 39.7813 52.5253 39.5393C52.2833 39.2973 51.9551 39.1614 51.6129 39.1614Z" fill="white"/>
<path d="M12.9032 45.6129C12.561 45.6129 12.2328 45.7489 11.9908 45.9908C11.7489 46.2328 11.6129 46.561 11.6129 46.9032C11.6129 47.2455 11.7489 47.5737 11.9908 47.8156C12.2328 48.0576 12.561 48.1936 12.9032 48.1936H14.1936C14.5358 48.1936 14.864 48.0576 15.106 47.8156C15.3479 47.5737 15.4839 47.2455 15.4839 46.9032C15.4839 46.561 15.3479 46.2328 15.106 45.9908C14.864 45.7489 14.5358 45.6129 14.1936 45.6129H12.9032Z" fill="white"/>
<path d="M30.9678 52.0646C30.6255 52.0646 30.2973 52.2005 30.0554 52.4425C29.8134 52.6845 29.6774 53.0127 29.6774 53.3549C29.6774 53.6971 29.8134 54.0253 30.0554 54.2673C30.2973 54.5093 30.6255 54.6452 30.9678 54.6452H32.2581C32.6003 54.6452 32.9285 54.5093 33.1705 54.2673C33.4125 54.0253 33.5484 53.6971 33.5484 53.3549C33.5484 53.0127 33.4125 52.6845 33.1705 52.4425C32.9285 52.2005 32.6003 52.0646 32.2581 52.0646H30.9678Z" fill="white"/>
<path d="M61.9355 54.6452C62.2777 54.6452 62.6059 54.5093 62.8479 54.2673C63.0898 54.0253 63.2258 53.6971 63.2258 53.3549C63.2258 53.0127 63.0898 52.6845 62.8479 52.4425C62.6059 52.2005 62.2777 52.0646 61.9355 52.0646H54.1935C53.8513 52.0646 53.5231 52.2005 53.2811 52.4425C53.0391 52.6845 52.9032 53.0127 52.9032 53.3549C52.9032 53.6971 53.0391 54.0253 53.2811 54.2673C53.5231 54.5093 53.8513 54.6452 54.1935 54.6452H61.9355Z" fill="white"/>
<path d="M46.4516 53.3549C46.4516 53.6971 46.5875 54.0253 46.8295 54.2673C47.0715 54.5093 47.3997 54.6452 47.7419 54.6452H49.0322C49.3745 54.6452 49.7027 54.5093 49.9446 54.2673C50.1866 54.0253 50.3226 53.6971 50.3226 53.3549C50.3226 53.0127 50.1866 52.6845 49.9446 52.4425C49.7027 52.2005 49.3745 52.0646 49.0322 52.0646H47.7419C47.3997 52.0646 47.0715 52.2005 46.8295 52.4425C46.5875 52.6845 46.4516 53.0127 46.4516 53.3549Z" fill="white"/>
<path d="M43.871 53.3549C43.871 53.0127 43.735 52.6845 43.493 52.4425C43.2511 52.2005 42.9229 52.0646 42.5806 52.0646H37.4194C37.0771 52.0646 36.7489 52.2005 36.507 52.4425C36.265 52.6845 36.129 53.0127 36.129 53.3549C36.129 53.6971 36.265 54.0253 36.507 54.2673C36.7489 54.5093 37.0771 54.6452 37.4194 54.6452H42.5806C42.9229 54.6452 43.2511 54.5093 43.493 54.2673C43.735 54.0253 43.871 53.6971 43.871 53.3549Z" fill="white"/>
<path d="M38.7097 58.5161C38.3675 58.5161 38.0393 58.6521 37.7973 58.894C37.5553 59.136 37.4194 59.4642 37.4194 59.8064C37.4194 60.1487 37.5553 60.4769 37.7973 60.7188C38.0393 60.9608 38.3675 61.0968 38.7097 61.0968H41.2903C41.6326 61.0968 41.9608 60.9608 42.2027 60.7188C42.4447 60.4769 42.5807 60.1487 42.5807 59.8064C42.5807 59.4642 42.4447 59.136 42.2027 58.894C41.9608 58.6521 41.6326 58.5161 41.2903 58.5161H38.7097Z" fill="white"/>
<path d="M51.6129 46.9032C51.6129 47.2455 51.7489 47.5737 51.9908 47.8156C52.2328 48.0576 52.561 48.1936 52.9032 48.1936H60.6452C60.9874 48.1936 61.3156 48.0576 61.5576 47.8156C61.7996 47.5737 61.9355 47.2455 61.9355 46.9032C61.9355 46.561 61.7996 46.2328 61.5576 45.9908C61.3156 45.7489 60.9874 45.6129 60.6452 45.6129H52.9032C52.561 45.6129 52.2328 45.7489 51.9908 45.9908C51.7489 46.2328 51.6129 46.561 51.6129 46.9032Z" fill="white"/>
<path d="M65.8064 45.6129C65.4642 45.6129 65.136 45.7489 64.894 45.9908C64.6521 46.2328 64.5161 46.561 64.5161 46.9032C64.5161 47.2455 64.6521 47.5737 64.894 47.8156C65.136 48.0576 65.4642 48.1936 65.8064 48.1936H67.0968C67.439 48.1936 67.7672 48.0576 68.0092 47.8156C68.2511 47.5737 68.3871 47.2455 68.3871 46.9032C68.3871 46.561 68.2511 46.2328 68.0092 45.9908C67.7672 45.7489 67.439 45.6129 67.0968 45.6129H65.8064Z" fill="white"/>
</svg>
