<svg width="100" height="61" viewBox="0 0 100 61" fill="none" xmlns="http://www.w3.org/2000/svg">
<path d="M84.4756 17.0416C85.5256 17.4586 86.5146 17.0736 86.6866 16.0826C86.8586 15.0946 86.1456 13.8466 85.0956 13.3966C57.4766 1.58858 29.8566 39.0716 2.2366 10.6306C1.1876 9.55459 0.197599 9.28559 0.0255992 10.1616C-0.146401 11.0346 0.566599 12.7626 1.6156 13.8816C29.2356 43.3176 56.8556 5.96558 84.4756 17.0416Z" fill="white"/>
<path d="M31.6046 13.3536C42.7536 11.8136 53.9036 6.18358 65.0526 4.04558C66.1016 3.84258 67.0906 2.81858 67.2636 1.71758C67.4346 0.617585 66.7216 -0.161416 65.6716 0.0285839C54.5236 2.03458 43.3736 7.67158 32.2246 9.36158C31.1746 9.52358 30.1856 10.5006 30.0146 11.5936C29.8426 12.6866 30.5546 13.4966 31.6046 13.3536Z" fill="white"/>
<path d="M97.6786 34.2956C70.0586 4.85959 42.4386 42.2136 14.8196 31.1366C13.7696 30.7206 12.7796 31.1056 12.6086 32.0956C12.4376 33.0826 13.1496 34.3316 14.1996 34.7826C41.8186 46.5916 69.4386 9.10558 97.0576 37.5496C98.1076 38.6236 99.0976 38.8946 99.2686 38.0176C99.4386 37.1436 98.7286 35.4156 97.6786 34.2956Z" fill="white"/>
<path d="M89.3546 39.0366C61.7356 21.8556 34.1156 59.8916 6.4956 37.9226C5.4456 37.0936 4.4566 37.0666 4.2846 37.9846C4.1136 38.9006 4.8266 40.4486 5.8766 41.3196C33.4956 64.1946 61.1146 26.2016 88.7346 42.5616C89.7836 43.1786 90.7736 42.9956 90.9446 42.0386C91.1176 41.0866 90.4046 39.6906 89.3546 39.0366Z" fill="white"/>
<path d="M38.0826 54.9766C26.9336 57.8166 15.7846 58.0366 4.63559 48.0566C3.58559 47.1216 2.59559 46.9926 2.42459 47.8936C2.25359 48.7896 2.96559 50.4146 4.01459 51.3926C15.1636 61.7536 26.3126 61.7746 37.4616 59.0346C38.5116 58.7776 39.5016 57.6306 39.6726 56.5066C39.8436 55.3806 39.1326 54.7096 38.0826 54.9766Z" fill="white"/>
</svg>
