<svg width="60" height="46" viewBox="0 0 60 46" fill="none" xmlns="http://www.w3.org/2000/svg">
<path d="M19 5V1C19 0.4 18.6 0 18 0C17.4 0 17 0.4 17 1V5C17 5.6 17.4 6 18 6C18.6 6 19 5.6 19 5Z" fill="white"/>
<path d="M1 19H5C5.6 19 6 18.6 6 18C6 17.4 5.6 17 5 17H1C0.4 17 0 17.4 0 18C0 18.6 0.4 19 1 19Z" fill="white"/>
<path d="M8 9C8.3 9 8.5 8.9 8.7 8.7C9.1 8.3 9.1 7.7 8.7 7.3L4.7 3.3C4.3 2.9 3.7 2.9 3.3 3.3C2.9 3.7 2.9 4.3 3.3 4.7L7.3 8.7C7.5 8.9 7.7 9 8 9Z" fill="white"/>
<path d="M28.7 8.7L32.7 4.7C33.1 4.3 33.1 3.7 32.7 3.3C32.3 2.9 31.7 2.9 31.3 3.3L27.3 7.3C26.9 7.7 26.9 8.3 27.3 8.7C27.5 8.9 27.8 9 28 9C28.2 9 28.5 8.9 28.7 8.7Z" fill="white"/>
<path d="M43 24C43.6 24 44 23.4 44 22.9C43.8 16.9 38.9 12 33 12C31.2 12 29.5 12.4 27.9 13.3C26.1 9.4 22.3 7 18 7C11.9 7 7 11.9 7 18C7 19.5 7.3 20.9 7.9 22.3C5.6 23.8 4 26.5 4 29.5C4 34 7.7 38 12 38H49C50.7 38 52 39.3 52 41C52 42.7 50.7 44 49 44C47.3 44 46 42.7 46 41C46 40.4 45.6 40 45 40C44.4 40 44 40.4 44 41C44 43.8 46.2 46 49 46C51.8 46 54 43.8 54 41C54 38.2 51.8 36 49 36H12C8.8 36 6 33 6 29.5C6 26 8.8 23 12 23C12.9 23 13.8 23.2 14.6 23.6C14.9 23.7 15.3 23.7 15.5 23.6C15.8 23.4 16 23.1 16 22.8C16.1 20.2 18.3 18.1 21 18.1C22 18.1 23 18.4 23.8 18.9C24 19.1 24.3 19.1 24.6 19.1C24.9 19 25.1 18.9 25.2 18.6C26.8 15.8 29.8 14.1 33 14.1C37.8 14.1 41.8 18.1 42 23C42 23.5 42.4 24 43 24ZM24 16.7C23.1 16.3 22.1 16 21 16C17.7 16 15 18.2 14.2 21.3C13.5 21.1 12.8 21 12 21C11.2 21 10.4 21.1 9.7 21.4C9.2 20.3 9 19.2 9 18C9 13 13 9 18 9C21.6 9 24.8 11.1 26.2 14.4C25.4 15 24.6 15.8 24 16.7Z" fill="white"/>
<path d="M53 20C49.1 20 46 23.1 46 27C46 27.6 46.4 28 47 28C47.6 28 48 27.6 48 27C48 24.2 50.2 22 53 22C55.8 22 58 24.2 58 27C58 29.8 55.8 32 53 32H21C20.4 32 20 32.4 20 33C20 33.6 20.4 34 21 34H53C56.9 34 60 30.9 60 27C60 23.1 56.9 20 53 20Z" fill="white"/>
<path d="M37 28C36.4 28 36 28.4 36 29C36 29.6 36.4 30 37 30H40C40.6 30 41 29.6 41 29C41 28.4 40.6 28 40 28H37Z" fill="white"/>
<path d="M17 28C16.4 28 16 28.4 16 29C16 29.6 16.4 30 17 30H32C32.6 30 33 29.6 33 29C33 28.4 32.6 28 32 28H17Z" fill="white"/>
</svg>
